/* XPM */
static char *dummy[]={
"32 32 597 2",
"Qt c None",
".# c #000000",
".d c #000000",
".a c #000000",
".b c #000000",
".c c #000000",
".E c #000000",
"dp c #000000",
"#b c #000000",
"ee c #000000",
".o c #000000",
"am c #000000",
"f1 c #010000",
"gM c #010101",
"hj c #020202",
"g2 c #000000",
"dW c #010101",
".e c #030101",
"hi c #000000",
"fb c #000000",
".D c #010101",
"do c #000000",
"#c c #070203",
".U c #080303",
"bm c #000000",
"eP c #010100",
"hh c #000000",
"g1 c #000000",
"fz c #000000",
"f0 c #040101",
"ha c #050402",
"gt c #070706",
"#9 c #0e0405",
"hg c #000000",
".p c #120505",
"et c #030102",
"df c #110505",
"de c #040403",
"g0 c #080805",
"fZ c #050101",
"bG c #0c0706",
"hf c #0a0a05",
"dV c #0d0606",
"#8 c #190606",
"aY c #261d0b",
".n c #200909",
"aC c #230809",
"he c #201c0c",
"ef c #2c0a0a",
".f c #33090a",
"cN c #241e0a",
".T c #2e0909",
"f2 c #39310c",
"bY c #2e1f0a",
"gZ c #2e270f",
"hs c #3a2e0a",
"hb c #36300e",
"hd c #362f0f",
"cw c #392d09",
"cd c #3a2e08",
"cO c #4f3d0e",
"dE c #4b0d0d",
"gL c #3d0909",
"hc c #423a10",
"gY c #453c0a",
"h# c #490d0c",
"gI c #41390e",
"#P c #4e0d0c",
".C c #540d0c",
"#Q c #5c0c0c",
"bn c #604f0f",
"ew c #5c4c0c",
".F c #600f0f",
"eu c #665317",
"#a c #5d0c0c",
".m c #640d0e",
"f3 c #60520e",
"ev c #6b5a0b",
"f4 c #5c4f13",
"an c #710d0d",
"dD c #610b0b",
"gs c #6c1012",
"#u c #6b0f0f",
".g c #760c0c",
"cx c #7a630c",
".q c #7a0c0d",
"eO c #5c3d16",
"fc c #790807",
"bH c #7f670a",
"gH c #715814",
"gX c #745d15",
"hk c #79430a",
"ed c #710e0d",
"ce c #886e09",
"eQ c #840c0a",
"hl c #7b4905",
"hr c #7c6d25",
"bZ c #8b700b",
"hm c #7c5c04",
"ho c #7c6e2b",
"hq c #7c7345",
"hp c #7d7346",
"hn c #7e6608",
"aX c #810d0f",
".l c #8e0909",
".h c #980909",
"fA c #9c230f",
"gW c #915c10",
"#v c #a01010",
".V c #a10f0e",
"al c #9e0d0d",
".k c #af0b0c",
"ex c #9d4418",
"gG c #a85e15",
".i c #b60c0c",
"#d c #b60e0e",
"dq c #b40e0d",
".j c #ba0a0b",
"gV c #ad5e11",
"dn c #b80c0c",
"dX c #bf0d0e",
"fa c #c17019",
".B c #c30d0c",
".S c #c60c0b",
"es c #c50b0d",
"gN c #cd661a",
"ff c #ba671f",
"gU c #cb5c16",
"bl c #ce770f",
"aD c #d30c0d",
"gF c #cc5b11",
"eU c #be301e",
"fY c #d1090b",
".r c #de0b0b",
"fy c #da0a09",
"a. c #e50909",
".G c #e13c3d",
"fG c #de8013",
"dU c #e90708",
"#7 c #eb0808",
"gJ c #ebc114",
"fg c #eb0708",
"eg c #f20606",
"dd c #ef8810",
"gT c #f16116",
"## c #f50606",
"g3 c #f5c116",
"gE c #f45a12",
"aB c #f90403",
"eT c #f7370b",
"dg c #f80506",
"#O c #f80707",
"eN c #f84708",
"aZ c #f87d05",
"gS c #f95108",
"bF c #f9c409",
"#t c #fa0303",
"gr c #fa0707",
"fe c #fbcc0a",
"bJ c #000000",
"dK c #015c02",
"dQ c #015c03",
"eo c #015e03",
"em c #025e03",
"eE c #025e04",
"el c #025f03",
"dL c #035d03",
"dJ c #035d04",
"en c #035e03",
"eF c #035e04",
"eD c #035f05",
"dI c #045d04",
"dP c #055d05",
"eG c #066107",
"aK c #080808",
"cp c #0d0d0d",
"aJ c #0e0c0d",
"cj c #0e0e0d",
"cr c #0e0e0e",
"b. c #0f0e0e",
"di c #100e0f",
"cF c #131313",
"dM c #136814",
"cs c #141212",
"br c #141313",
"c4 c #151313",
"cJ c #191717",
"dH c #1e6d1d",
"cD c #1f1e1e",
"b9 c #251f1a",
"bL c #262525",
"b7 c #271f07",
"d9 c #29782b",
"c5 c #2a2728",
"b4 c #2a2929",
"bK c #2b2929",
"dR c #307830",
"d4 c #307a30",
"eC c #307b31",
"ek c #337d34",
"b2 c #343233",
"dO c #347d35",
"bP c #352b08",
"a7 c #363535",
"cg c #363536",
"d1 c #367d35",
"c. c #383738",
"d6 c #3b8039",
"cn c #3d3009",
"aI c #3f3e3e",
"bv c #444243",
"c# c #464344",
"eH c #4a8b4a",
"dk c #4b4a4a",
"aV c #4b6426",
"ea c #4d8d4d",
"d2 c #4f8e4f",
"dx c #504f4f",
"dN c #508f51",
"d8 c #519051",
"cl c #545353",
"cm c #55440d",
"ep c #559255",
"e. c #559456",
"bO c #565455",
"d3 c #579457",
"d5 c #5f9a5f",
"a6 c #615f5f",
"cq c #615f60",
"#3 c #62430b",
"cz c #626161",
"dj c #636061",
"d7 c #639c63",
"bQ c #646264",
"cC c #656564",
"e# c #669d64",
"co c #686667",
"c0 c #6a6969",
"cZ c #6a6a6a",
"ak c #6b3c07",
"aL c #6c6a6a",
"#J c #6c9865",
"cG c #6d6c6c",
"#o c #70915e",
"bU c #717070",
"#p c #743d0d",
"b1 c #747271",
"bM c #757474",
"ch c #757574",
"dy c #787777",
"dB c #795a2c",
"bS c #7f7d7d",
"az c #81af82",
"bu c #868686",
"#K c #872d03",
"ct c #8c8b88",
".3 c #8d502b",
"b6 c #908e8f",
"c6 c #918f8f",
"c3 c #91908c",
"dS c #93ab85",
".2 c #972b07",
"eB c #99bd9a",
"dl c #9abd98",
".4 c #9f2403",
"bs c #9f9e9e",
"ca c #a19fa0",
"cE c #a1a0a0",
"cI c #a3a1a2",
"#2 c #a3c1a4",
"a9 c #a5a4a4",
"b3 c #a5a4a5",
"#h c #a88163",
"ck c #a8a7a7",
"#n c #a9c7a9",
"ae c #ad996c",
"eI c #adcaae",
"aA c #ae1f02",
"eb c #afc8ab",
"#i c #b0c6aa",
"e0 c #b0ccb1",
"ec c #b1260c",
"er c #b32d12",
"eJ c #b49379",
".1 c #b5422b",
"eq c #b6c6ac",
"cK c #b7b3a4",
"a8 c #b7b7b7",
"e1 c #b7ccb4",
"aj c #b7cfb5",
"#A c #ba866f",
"eZ c #bcd2bb",
"af c #bdae8f",
"#g c #be3b25",
"bI c #bfbca8",
"cA c #c1bdaa",
"#Z c #c4ba9e",
"dw c #c7c8c6",
".5 c #c83e2d",
"e4 c #ca5319",
"bh c #cbbe2c",
"#Y c #cbc4af",
"ag c #cec8b6",
"aH c #cecdce",
"e3 c #cf9074",
"ad c #d0ccb9",
"d0 c #d0e0ce",
"#q c #d2473e",
"au c #d2ccbb",
"ax c #d2ccbe",
"e2 c #d3c2b6",
"bx c #d3caa5",
"as c #d3cdbc",
"eK c #d41507",
"ar c #d4cebf",
"#T c #d5c4b6",
"aw c #d5cfbf",
"aR c #d5d2c3",
"dm c #d61002",
"da c #d79305",
"dT c #d80f02",
"ah c #d8d6cc",
"aM c #d9d5c8",
"ej c #d9e6d9",
"#G c #dad7c8",
"bd c #dcdbd2",
"av c #ddd9cc",
"#F c #dddbce",
"#m c #dde8dd",
"ba c #dfd198",
"#X c #dfdcd0",
"#j c #dfebdf",
"bb c #e0dccb",
"#0 c #e0deda",
"#I c #e0e8e0",
"#S c #e15c54",
".0 c #e17771",
"bc c #e1dcc9",
"bR c #e2deca",
"aS c #e2dfd9",
"eY c #e3d9d1",
"#H c #e3e1d6",
"ab c #e5c9c1",
"#1 c #e5e5e5",
"b8 c #e7bb0d",
"fn c #e8700f",
"at c #e8e5dc",
"ai c #e8e8e8",
"ay c #e8e9e9",
"dG c #e8f0e8",
"ao c #e99792",
"#z c #ea0a03",
"gb c #ea6969",
".6 c #ea6f6a",
"ga c #ea7d7a",
"by c #eadda5",
"cb c #eadfae",
"#B c #eaf1eb",
"g# c #eb5355",
"fS c #ec6d6e",
"bi c #ec8a05",
"ac c #ecebe5",
"bN c #ecebec",
"gc c #ed8181",
"cY c #ede7c5",
".9 c #ee8d8e",
"fR c #ee908e",
"d# c #eed246",
"be c #eed778",
"dz c #eef1ee",
"fQ c #ef5252",
"fv c #ef595a",
"fo c #ef6508",
"fu c #ef7271",
"#4 c #f03534",
"gd c #f03f3f",
"ft c #f05959",
".J c #f0b8b7",
"gA c #f12726",
".I c #f13837",
".w c #f15658",
"gw c #f15858",
"fP c #f15f60",
"aa c #f20c08",
"fW c #f22c2c",
"fU c #f22d2e",
".8 c #f25050",
"fw c #f25255",
"ge c #f25c5c",
".M c #f26261",
"fm c #f26310",
"#V c #f2f1ed",
"f6 c #f32727",
"fV c #f33230",
"gv c #f34748",
".H c #f35150",
"#r c #f37d7c",
"eA c #f3dfdd",
"aQ c #f3f2ed",
"gz c #f42929",
".X c #f42a2b",
"f7 c #f42b2c",
"gx c #f42c2c",
"gy c #f44242",
"#f c #f46362",
"ei c #f49a99",
".P c #f4a6a5",
".Y c #f4b4b5",
"fx c #f52323",
"f8 c #f53130",
"gf c #f53a3a",
".L c #f54d4d",
"eW c #f56160",
"fq c #f56212",
"e7 c #f5670b",
"dF c #f56767",
"fp c #f56a08",
"#R c #f5908e",
"#5 c #f5b2b3",
"ci c #f5efd0",
"cH c #f5f2d7",
"fO c #f60e0f",
"f9 c #f61e1e",
"fs c #f62016",
"aE c #f62f2e",
"fL c #f63b07",
"fl c #f64205",
"#y c #f64543",
"ez c #f65a59",
"e5 c #f65c09",
"g6 c #f66207",
"fD c #f67309",
"dh c #f67675",
"#x c #f68b8a",
"#N c #f68d8e",
"dZ c #f6a09f",
"eX c #f6b3b3",
"bA c #f6dc70",
"b# c #f6ecbc",
"#E c #f6f6f3",
"f5 c #f70f0a",
"gg c #f71b1a",
"#M c #f72524",
"f. c #f73e04",
"g8 c #f74208",
"e9 c #f74706",
"fK c #f75707",
"g7 c #f7580a",
"e8 c #f75b09",
"fI c #f76207",
"e6 c #f76309",
"g. c #f76f6f",
"fd c #f78e09",
"bq c #f7e496",
"bV c #f7edc0",
"bT c #f7f0cc",
"bt c #f7f7f7",
"dv c #f7fbf6",
"du c #f7fbf7",
"aW c #f80401",
"fN c #f80f07",
".K c #f81515",
"h. c #f82707",
"gp c #f82709",
".Z c #f82f2f",
".Q c #f83233",
"gD c #f83804",
"fr c #f83807",
"f# c #f85308",
".O c #f85a59",
"fH c #f86408",
"g5 c #f87407",
"gl c #f87505",
"gm c #f88c06",
"g4 c #f88d07",
"a2 c #f8ab31",
"#l c #f8fbf7",
"fi c #f90201",
"gu c #f90c08",
".7 c #f90f0d",
"fX c #f91010",
".z c #f91718",
".N c #f91b1b",
"fM c #f92406",
"gO c #f93109",
"g9 c #f93e06",
"gR c #f94207",
"gK c #f9740a",
"go c #f97605",
"a0 c #f97c04",
"bj c #f98504",
"dc c #f98606",
"gn c #f99107",
"fE c #f9ad05",
"fF c #f9b206",
"bz c #f9cf28",
"c7 c #f9e47f",
"aU c #f9fbf9",
"#k c #f9fcf8",
"gB c #fa0302",
"gh c #fa0304",
"gi c #fa0503",
"eV c #fa090a",
"fC c #fa0f03",
"dr c #fa1413",
"gP c #fa2409",
".t c #fa2425",
"gj c #fa2505",
"fk c #fa2f04",
"gQ c #fa3109",
"eS c #fa3a04",
"gk c #fa5607",
"fJ c #fa6409",
"a1 c #fa7c05",
"bk c #fa8605",
"db c #fa8705",
"cS c #fac625",
"cX c #fad63e",
"cB c #fada52",
"cW c #fae37d",
"cV c #fae790",
"c2 c #faf2c6",
"bw c #faf3cc",
"aT c #fafafa",
"dA c #fafcfa",
"fT c #fb0102",
"#L c #fb0201",
".A c #fb0202",
"fh c #fb0203",
"dY c #fb0302",
"ey c #fb0304",
"eh c #fb0505",
"gq c #fb0607",
"#6 c #fb0808",
".x c #fb0d0d",
"eL c #fb0f04",
"fB c #fb1002",
".v c #fb100f",
"fj c #fb1605",
"eR c #fb2706",
"eM c #fb3206",
"cR c #fba706",
"cQ c #fba805",
"cP c #fba905",
"b0 c #fbd435",
"cU c #fbd63a",
"cL c #fbda50",
"c8 c #fbdb50",
"c9 c #fbdb52",
"d. c #fbdc53",
"bf c #fbdc5b",
"cu c #fbdc5c",
"bg c #fbdd5b",
"cy c #fbe276",
"a5 c #fbe996",
"ds c #fbeeee",
"c1 c #fbf8e6",
"aN c #fbfbf8",
"aP c #fbfbf9",
"dt c #fbfdfb",
"dC c #fc0201",
".W c #fc0202",
".s c #fc0203",
"gC c #fc1d05",
"bX c #fccb03",
"bW c #fcd01d",
"bC c #fcd743",
"a4 c #fcde62",
"a3 c #fcdf62",
"cf c #fce276",
"aq c #fcfbfa",
"aF c #fcfbfb",
"b5 c #fcfcfc",
"#. c #fd0100",
"#e c #fd0101",
".y c #fd0102",
".R c #fd0201",
"#w c #fd0202",
"cc c #fdca03",
"bp c #fdcb02",
"cv c #fdcb03",
"cM c #fdcb04",
"bB c #fdcb07",
"bD c #fdce14",
"cT c #fdd534",
"#W c #fdfdfc",
"#s c #fe0100",
".u c #fe0101",
"bE c #feca02",
"bo c #fecb02",
"#U c #fefefe",
"#C c #fefffe",
"a# c #ff0101",
"aG c #fffefe",
"ap c #fffeff",
"aO c #fffffe",
"#D c #ffffff",
"QtQtQtQtQtQtQtQtQtQtQtQt.#.a.b.c.b.a.#QtQtQtQtQtQtQtQtQtQtQtQtQt",
"QtQtQtQtQtQtQtQtQt.d.e.f.g.h.i.j.k.l.m.n.o.dQtQtQtQtQtQtQtQtQtQt",
"QtQtQtQtQtQtQt.d.p.q.r.s.t.u.v.w.x.y.z.A.B.C.D.#QtQtQtQtQtQtQtQt",
"QtQtQtQtQtQt.E.F.G.H.u.I.J.K.L.M.N.O.P.Q.u.R.S.T.cQtQtQtQtQtQtQt",
"QtQtQtQtQt.U.V.W.X.Y.A.Z.0.1.2.3.4.5.6.7.8.9#.###a#bQtQtQtQtQtQt",
"QtQtQtQt#c#d#e.u.u#f#g#h#i#j#k#l#m#n#o#p#q#r.u#s#t#u#bQtQtQtQtQt",
"QtQtQt.c#v#w#x#y#z#A#B#C#D#D#E#F#G#H#E#I#J#K#L#M#N#O#P.bQtQtQtQt",
"QtQt.##Q.y.R#R#S#T#U#D#D#D#D#V#W#X#Y#Z#0#1#2#3#4#5#6#7#8.#QtQtQt",
"QtQt#9a.a#a#aaab#U#D#D#D#D#D#Wacadaeafagahaiajak.ua#.ualamQtQtQt",
"Qt.#an#ea##eao#U#D#Dap#U#Uaqarasatauavawaxay#UazaA.ua#aBaC.#QtQt",
"Qt#baD.u.uaEaF#DaGaHaIaJaKaLaMaNaOaPaQaRaSaT#CaUaVaWa##eaX.EQtQt",
"QtaYaZa0a1a2a3a4a5a6a7a8a9b.b#babbbcbdbebfbgbgbfbhbibjbkblbmQtQt",
"QtbnbobobobobobpbqbrbsbtbubvbwbxbybzbAbBbCbDbEbobobobobobFbGQtQt",
".#bHbobobobobobBbIbJbKbLbMbNbObPbQbRbSbTbUbVbWbobobobobobXbY.#Qt",
".dbZbobobobobob0b1b2b3b4b5b6b7b8b9c.c#caa7bScbccbobobobobocd.#Qt",
".dcebobobobobocfcgchcicjckclcmcncocpcqcrcsctcubpbobobobocvcw.#Qt",
".#cxbobobobobocyczcAcBcCcDcEcFcGcHcIcJcrcKcLbpbobobobobocMcN.#Qt",
"QtcOcPcQcRcScTcUcVcWcXcYcZc0c1c2c3c4c5c6c7c8c9d.d#dadbdcdddeQtQt",
"Qtdfdga#a#dh#U#D#D#D#D#D#D#D#DcEdidjdkaF#D#D#D#Ddldma#.udndoQtQt",
"Qtdpdq.ua#drdsdtdududududududvdwdxdydzdududududAdBdCa##edD.cQtQt",
"Qt.#dEdCa#.udFdGdHdIdJdKdKdLdKdMdNdOdPdKdJdQdRdSdTa#a#dUdV.#QtQt",
"QtQtdWdXa#a#dYdZd0d1d2d3d4d5d6d7d8d9d8e.e#eaebec.ua#.uedeeQtQtQt",
"Qt.d.aefega#a#eheiejekelemenelemeleoelemepeqer#ea#.ueset.#QtQtQt",
".deuevewexeya#.u#eezeAeBeCeDeEeFeEeGeHeIeJeK.WeLeMeNeOeP.#QtQtQt",
".deQeReSeTeU#t.ua#.ueVeWeXeYeZe0e1e2e3e4e5e6e7e8e9f.f#fafbQtQtQt",
".dfca##efdfefffg.ufhfifjfkflfmfnfofpfqfrfsftfufvfwfxa#fyfzQtQtQt",
".afAfBfCfDfEfFfGfHfIfJfKfLfMfNfOfPfQfRfSfTfUfVfWfX#w.ufYfZf0f1Qt",
".df2f3f4f5.Af6f7f8f9g.g#gagbgcgdgegfggghgigjgkglgmgngogpgqgrgs.a",
"Qt.#.agtgua##egvgwgxgygzgAfhgBgCgDgEgFgGgHgIgJbEbobpbXgKa#.ugL.d",
"QtQtQtgMgNgOgPgQgRgSgTgUgVgWgXgYgZg0g1g2.cdog3g4g5g6g7g8g9h.h#.d",
"QtQtQt.#hahbhchdhehfhghhhiee.c.a.#QtQtQtQthjhkhlhmhnhohphqhrhs.d",
"QtQtQtQtQt.#.d.#.#QtQtQtQtQtQtQtQtQtQtQtQtQt.b.c.c.c.c.c.c.c.aQt"};
